<?xml version="1.0" standalone="no"?>
<!DOCTYPE svg PUBLIC "-//W3C//DTD SVG 20010904//EN"
 "http://www.w3.org/TR/2001/REC-SVG-20010904/DTD/svg10.dtd">
<svg version="1.0" xmlns="http://www.w3.org/2000/svg"
 width="303.000000pt" height="304.000000pt" viewBox="0 0 303.000000 304.000000"
 preserveAspectRatio="xMidYMid meet">

<g transform="translate(0.000000,304.000000) scale(0.100000,-0.100000)"
fill="#000000" stroke="none">
<path d="M800 3030 c-197 -8 -232 -16 -375 -85 -99 -47 -119 -62 -190 -136
-88 -92 -137 -174 -181 -304 -24 -74 -27 -99 -36 -320 -5 -132 -7 -546 -5
-920 4 -762 0 -722 79 -882 85 -172 244 -311 415 -363 67 -20 85 -20 1023 -18
l955 3 85 39 c216 99 358 259 427 481 17 57 18 113 17 980 -1 1013 2 967 -64
1111 -88 194 -261 335 -490 400 -60 17 -120 18 -780 20 -393 0 -789 -2 -880
-6z m1593 -215 c143 -30 298 -150 357 -276 63 -137 61 -101 57 -1051 -3 -944
1 -878 -63 -1013 -33 -68 -126 -168 -196 -209 -25 -15 -77 -36 -114 -46 -65
-19 -107 -20 -921 -20 -840 -1 -853 0 -914 20 -176 60 -272 150 -340 323 l-33
82 -7 400 c-9 523 -2 1314 12 1385 40 201 199 361 402 405 94 20 1663 21 1760
0z"/>
<path d="M1463 2685 c-12 -9 -24 -31 -28 -54 -15 -87 58 -161 124 -126 29 15
51 58 51 102 0 31 -25 79 -45 87 -29 11 -80 6 -102 -9z"/>
<path d="M587 2489 c-23 -14 -47 -62 -47 -96 0 -22 17 -44 76 -101 42 -39 87
-75 101 -78 53 -14 111 42 98 93 -8 36 -165 193 -191 193 -10 0 -27 -5 -37
-11z"/>
<path d="M2305 2410 c-16 -10 -217 -209 -447 -441 l-418 -421 -27 18 c-16 10
-54 37 -87 61 -78 58 -111 58 -160 1 -40 -46 -46 -84 -19 -116 21 -23 216
-189 253 -215 13 -9 34 -17 47 -17 21 0 138 115 543 534 127 131 350 333 424
384 59 41 79 84 65 138 -23 83 -107 119 -174 74z"/>
<path d="M1503 2375 c-46 -19 -117 -150 -197 -361 l-27 -71 -242 -6 c-133 -4
-260 -11 -282 -16 -44 -11 -90 -56 -98 -98 -12 -63 9 -92 191 -272 l176 -175
-22 -60 c-12 -34 -44 -141 -72 -239 -45 -158 -50 -181 -40 -217 13 -48 63 -90
107 -90 17 0 85 27 152 60 67 33 186 85 264 116 l142 56 100 -51 c55 -28 149
-79 208 -113 87 -49 120 -62 163 -66 52 -4 55 -3 95 37 40 40 41 43 35 90 -4
27 -27 108 -51 180 -25 73 -57 173 -71 224 l-26 92 109 103 c181 173 274 266
285 286 22 41 -28 146 -71 146 -19 0 -253 -233 -430 -429 -141 -156 -136 -134
-70 -309 22 -56 39 -105 39 -107 0 -5 -141 89 -201 133 -16 12 -23 9 -61 -26
-57 -52 -157 -102 -205 -102 -21 0 -56 9 -78 19 l-40 18 -55 -30 c-30 -17 -61
-34 -67 -40 -20 -15 -16 14 12 88 l25 66 -68 73 c-104 113 -171 230 -172 302
0 52 34 138 75 187 l39 46 75 -2 c65 -2 87 -8 152 -40 42 -20 81 -37 88 -37
17 0 81 104 115 185 16 39 31 72 32 74 2 2 14 -9 27 -25 l24 -28 71 64 c58 53
69 67 62 84 -49 125 -85 207 -105 237 -30 46 -70 62 -112 44z"/>
<path d="M371 1554 c-32 -41 -25 -121 13 -146 6 -4 55 -8 108 -8 92 0 97 1
117 26 35 44 25 116 -18 138 -16 9 -61 14 -113 15 -82 1 -88 0 -107 -25z"/>
<path d="M2413 1544 c-22 -22 -25 -32 -20 -67 9 -64 32 -77 139 -77 102 0 122
7 137 51 16 48 14 67 -14 94 -22 23 -32 25 -120 25 -90 0 -98 -2 -122 -26z"/>
<path d="M618 686 c-99 -93 -107 -114 -60 -167 36 -40 73 -41 115 -3 113 104
147 140 147 156 0 27 -68 98 -94 98 -12 -1 -57 -35 -108 -84z"/>
<path d="M2270 734 c-26 -24 -40 -45 -40 -61 0 -30 94 -132 159 -174 43 -28
45 -28 73 -11 41 23 63 68 50 97 -23 51 -166 185 -196 185 -3 0 -24 -16 -46
-36z"/>
<path d="M1465 675 c-24 -23 -25 -30 -25 -144 0 -114 1 -121 26 -150 40 -48
111 -37 135 21 17 41 3 257 -18 281 -25 26 -88 23 -118 -8z"/>
</g>
</svg>
